<svg xmlns="http://www.w3.org/2000/svg" width="1333.333" height="1333.333" preserveAspectRatio="xMidYMid meet" version="1.0" viewBox="0 0 1000 1000"><metadata>Created by potrace 1.11, written by Peter Selinger 2001-2013</metadata><g fill="#000" stroke="none"><path d="M4842 8654 c-36 -9 -534 -290 -1517 -857 -805 -463 -1460 -843 -1455 -845 5 -2 -9 -18 -33 -36 -51 -39 -101 -110 -124 -179 -17 -49 -18 -158 -21 -1706 -1 -1080 1 -1674 8 -1709 14 -76 50 -152 93 -193 31 -31 2902 -1710 3021 -1768 68 -32 190 -40 272 -16 82 23 3015 1720 3088 1787 29 25 64 68 79 95 60 111 57 17 57 1773 0 1772 4 1667 -63 1779 -41 68 -117 137 -187 169 -30 14 -701 399 -1490 856 -912 527 -1456 836 -1493 848 -69 21 -161 22 -235 2z m1142 -1474 c558 -322 1011 -588 1008 -592 -10 -10 -2016 -1166 -2029 -1170 -15 -4 -2043 1164 -2040 1175 3 12 2021 1176 2035 1174 7 -1 469 -265 1026 -587z m1516 -2402 l0 -1113 -1018 -548 c-559 -301 -1059 -570 -1109 -598 l-93 -50 0 1115 0 1114 1103 595 c606 328 1105 596 1110 596 4 1 7 -500 7 -1111z m-4015 509 l980 -592 6 -1110 c4 -611 5 -1111 4 -1112 -1 -2 -448 268 -993 600 l-991 602 -1 1103 c0 606 3 1102 8 1102 4 -1 448 -267 987 -593z" transform="translate(0.000000,1000.000000) scale(0.100000,-0.100000)"/></g></svg>