<svg xmlns="http://www.w3.org/2000/svg" width="191" height="56" fill="none" viewBox="0 0 191 56"><path stroke="url(#paint0_linear)" stroke-linecap="round" stroke-linejoin="round" stroke-width="3.267" d="M39.9 34.5342V21.4675C39.8994 20.8947 39.7482 20.3321 39.4615 19.8361C39.1748 19.3402 38.7628 18.9283 38.2667 18.6419L26.8333 12.1085C26.3367 11.8218 25.7734 11.6709 25.2 11.6709C24.6266 11.6709 24.0633 11.8218 23.5667 12.1085L12.1333 18.6419C11.6372 18.9283 11.2252 19.3402 10.9385 19.8361C10.6518 20.3321 10.5006 20.8947 10.5 21.4675V34.5342C10.5006 35.1071 10.6518 35.6697 10.9385 36.1656C11.2252 36.6616 11.6372 37.0735 12.1333 37.3599L23.5667 43.8932C24.0633 44.1799 24.6266 44.3309 25.2 44.3309C25.7734 44.3309 26.3367 44.1799 26.8333 43.8932L38.2667 37.3599C38.7628 37.0735 39.1748 36.6616 39.4615 36.1656C39.7482 35.6697 39.8994 35.1071 39.9 34.5342Z"/><path fill="url(#paint1_linear)" fill-rule="evenodd" d="M11.7574 18.3545C10.9765 17.9029 9.97737 18.1697 9.52569 18.9505C9.074 19.7314 9.34083 20.7305 10.1217 21.1822L23.5654 28.9589V44.4639C23.5654 45.366 24.2967 46.0972 25.1988 46.0972C26.1008 46.0972 26.8321 45.366 26.8321 44.4639V28.9587L40.2754 21.1822C41.0562 20.7305 41.323 19.7314 40.8713 18.9505C40.4197 18.1697 39.4205 17.9029 38.6397 18.3545L25.1985 26.1298L11.7574 18.3545Z" clip-rule="evenodd"/><path fill="#212429" d="M66.4832 13.5532C67.1403 14.6881 67.872 16.0769 68.6784 17.7196C69.4848 19.3623 70.3061 21.0945 71.1424 22.9164C71.9787 24.7084 72.8 26.5452 73.6064 28.4268C74.4427 30.2785 75.2043 31.9959 75.8912 33.5788C76.5781 31.9959 77.3248 30.2785 78.1312 28.4268C78.9376 26.5452 79.7589 24.7084 80.5952 22.9164C81.4315 21.0945 82.2528 19.3623 83.0592 17.7196C83.8656 16.0769 84.5973 14.6881 85.2544 13.5532H90.3616C90.6304 15.8231 90.8843 18.2423 91.1232 20.8108C91.3621 23.3495 91.5712 25.9628 91.7504 28.6508C91.9595 31.3089 92.1387 33.9969 92.288 36.7148C92.4672 39.4028 92.6165 42.0311 92.736 44.5996H87.1808C87.0613 40.9857 86.912 37.2673 86.7328 33.4444C86.5835 29.6215 86.3445 25.918 86.016 22.334C85.6875 23.0209 85.2992 23.8423 84.8512 24.798C84.4032 25.7537 83.9253 26.7991 83.4176 27.934C82.9099 29.0391 82.3872 30.1889 81.8496 31.3836C81.3419 32.5783 80.8341 33.7431 80.3264 34.878C79.8485 35.9831 79.4005 37.0284 78.9824 38.014C78.5643 38.9697 78.2059 39.7911 77.9072 40.478H73.696C73.3973 39.7911 73.0389 38.9548 72.6208 37.9692C72.2027 36.9836 71.7397 35.9383 71.232 34.8332C70.7541 33.6983 70.2464 32.5335 69.7088 31.3388C69.2011 30.1441 68.6933 28.9943 68.1856 27.8892C67.6779 26.7841 67.2 25.7537 66.752 24.798C66.304 23.8124 65.9157 22.9911 65.5872 22.334C65.2587 25.918 65.0048 29.6215 64.8256 33.4444C64.6763 37.2673 64.5419 40.9857 64.4224 44.5996H58.8672C58.9867 42.0311 59.1211 39.3729 59.2704 36.6252C59.4496 33.8775 59.6288 31.1596 59.808 28.4716C60.0171 25.7537 60.2411 23.1255 60.48 20.5868C60.7189 18.0481 60.9728 15.7036 61.2416 13.5532H66.4832ZM116.381 21.1692C113.962 30.0695 111.154 38.1335 107.959 45.3612C107.361 46.7052 106.749 47.8551 106.122 48.8108C105.495 49.7665 104.793 50.558 104.016 51.1852C103.24 51.8124 102.373 52.2604 101.418 52.5292C100.462 52.8279 99.357 52.9772 98.1026 52.9772C97.2663 52.9772 96.43 52.8876 95.5938 52.7084C94.7874 52.5292 94.1751 52.3351 93.757 52.126L94.7426 47.7804C95.8178 48.1985 96.878 48.4076 97.9234 48.4076C99.3271 48.4076 100.417 48.0641 101.194 47.3772C102 46.7201 102.702 45.6897 103.299 44.286C101.597 41.0007 99.9543 37.4167 98.3714 33.534C96.8183 29.6513 95.4295 25.5297 94.205 21.1692H99.9842C100.283 22.4236 100.641 23.7825 101.059 25.246C101.507 26.7095 101.985 28.2028 102.493 29.726C103.001 31.2193 103.538 32.7127 104.106 34.206C104.673 35.6993 105.241 37.0881 105.808 38.3724C106.764 35.7143 107.66 32.8919 108.496 29.9052C109.332 26.8887 110.094 23.9767 110.781 21.1692H116.381ZM139.567 17.7196C138.582 18.7948 137.387 20.1985 135.983 21.9308C134.58 23.6332 133.131 25.4999 131.638 27.5308C130.144 29.5319 128.666 31.6076 127.203 33.758C125.769 35.8785 124.5 37.8945 123.395 39.806H140.06V44.5996H116.585V41.0604C117.182 39.9553 117.869 38.7607 118.646 37.4764C119.452 36.1623 120.303 34.8183 121.199 33.4444C122.095 32.0705 123.021 30.6817 123.977 29.278C124.963 27.8743 125.933 26.5303 126.889 25.246C127.845 23.9319 128.771 22.6924 129.667 21.5276C130.592 20.3329 131.459 19.2727 132.265 18.3468H117.347V13.5532H139.567V17.7196ZM148.702 44.5996H143.281V21.1692H148.702V44.5996ZM149.284 14.3148C149.284 15.3303 148.956 16.1367 148.299 16.734C147.641 17.3313 146.865 17.63 145.969 17.63C145.043 17.63 144.252 17.3313 143.595 16.734C142.937 16.1367 142.609 15.3303 142.609 14.3148C142.609 13.2695 142.937 12.4481 143.595 11.8508C144.252 11.2535 145.043 10.9548 145.969 10.9548C146.865 10.9548 147.641 11.2535 148.299 11.8508C148.956 12.4481 149.284 13.2695 149.284 14.3148ZM159.829 44.5996C158.335 41.5233 156.797 37.9991 155.214 34.0268C153.661 30.0247 152.242 25.7388 150.958 21.1692H156.737C157.066 22.4833 157.439 23.902 157.857 25.4252C158.305 26.9185 158.768 28.4268 159.246 29.95C159.754 31.4433 160.262 32.9068 160.769 34.3404C161.307 35.7441 161.8 37.0135 162.248 38.1484C162.696 37.0135 163.174 35.7441 163.681 34.3404C164.189 32.9068 164.682 31.4433 165.16 29.95C165.668 28.4268 166.145 26.9185 166.593 25.4252C167.041 23.902 167.43 22.4833 167.758 21.1692H173.358C172.074 25.7388 170.64 30.0247 169.057 34.0268C167.504 37.9991 165.981 41.5233 164.488 44.5996H159.829ZM181.08 44.5996H175.659V21.1692H181.08V44.5996ZM181.663 14.3148C181.663 15.3303 181.334 16.1367 180.677 16.734C180.02 17.3313 179.243 17.63 178.347 17.63C177.422 17.63 176.63 17.3313 175.973 16.734C175.316 16.1367 174.987 15.3303 174.987 14.3148C174.987 13.2695 175.316 12.4481 175.973 11.8508C176.63 11.2535 177.422 10.9548 178.347 10.9548C179.243 10.9548 180.02 11.2535 180.677 11.8508C181.334 12.4481 181.663 13.2695 181.663 14.3148Z"/><defs><linearGradient id="paint0_linear" x1="39.9" x2="3.255" y1="44.331" y2="29.077" gradientUnits="userSpaceOnUse"><stop stop-color="#7B1E52"/><stop offset="1" stop-color="#009FE3"/></linearGradient><linearGradient id="paint1_linear" x1="41.091" x2="4.67" y1="46.097" y2="26.954" gradientUnits="userSpaceOnUse"><stop stop-color="#7B1E52"/><stop offset="1" stop-color="#009FE3"/></linearGradient></defs></svg>